<svg width="25" height="24" viewBox="0 0 25 24" fill="none" xmlns="http://www.w3.org/2000/svg">
<g opacity="0.89">
<path d="M4.82317 6.90853C4.74365 6.362 5.12224 5.85449 5.66877 5.77497L13.5854 4.62307C14.1319 4.54355 14.6394 4.92214 14.719 5.46867L14.8999 6.71214H16.921L16.5541 4.19111C16.3951 3.09805 15.3801 2.34088 14.287 2.49993L4.39121 3.93979C3.29815 4.09884 2.54098 5.11387 2.70003 6.20693L4.13989 16.1027C4.28486 17.099 5.14093 17.8162 6.11905 17.815V15.8871C6.11905 15.8389 6.11557 15.7908 6.10863 15.7431L4.82317 6.90853Z" fill="#E6E6E6"/>
<path d="M12.421 17.6159V11.3841C12.421 11.2223 12.6031 11.1275 12.7356 11.2203L17.1869 14.3362C17.3006 14.4158 17.3006 14.5842 17.1869 14.6638L12.7356 17.7797C12.6031 17.8725 12.421 17.7777 12.421 17.6159Z" fill="#E6E6E6"/>
<path fill-rule="evenodd" clip-rule="evenodd" d="M19.421 7.5H9.42096C8.31639 7.5 7.42096 8.39543 7.42096 9.5V19.5C7.42096 20.6046 8.31639 21.5 9.42096 21.5H19.421C20.5255 21.5 21.421 20.6046 21.421 19.5V9.5C21.421 8.39543 20.5255 7.5 19.421 7.5ZM18.421 9.5L10.421 9.5C9.86867 9.5 9.42096 9.94772 9.42096 10.5V18.5C9.42096 19.0523 9.86867 19.5 10.421 19.5H18.421C18.9732 19.5 19.421 19.0523 19.421 18.5V10.5C19.421 9.94771 18.9732 9.5 18.421 9.5Z" fill="#E6E6E6"/>
<path d="M9.4211 7.99951H19.4211C20.2493 7.99959 20.9208 8.67136 20.9211 9.49951V19.5005C20.9208 20.3286 20.2493 21.0004 19.4211 21.0005H9.4211C8.59283 21.0005 7.92136 20.3287 7.9211 19.5005V9.49951C7.92136 8.67131 8.59283 7.99951 9.4211 7.99951ZM10.4211 8.99951C9.59267 8.99951 8.9211 9.67206 8.9211 10.5005V18.5005C8.92136 19.3287 9.59283 20.0005 10.4211 20.0005H18.4211C19.2495 20.0004 19.9211 19.3279 19.9211 18.4995V10.4995C19.9208 9.67136 19.2493 8.99959 18.4211 8.99951H10.4211ZM14.3586 2.99463C15.1784 2.87535 15.9405 3.44339 16.0598 4.26318L16.343 6.2124H15.3322L15.2141 5.39697C15.0948 4.57732 14.3335 4.0094 13.5139 4.12842L5.59688 5.27979C4.77708 5.39907 4.20904 6.16116 4.32832 6.98096L5.61348 15.8149C5.61695 15.8388 5.61934 15.8631 5.61934 15.8872V17.228C5.11169 17.048 4.71792 16.6007 4.63496 16.0308L3.19453 6.13525C3.07526 5.31552 3.64339 4.55443 4.46309 4.43506L14.3586 2.99463ZM16.549 14.4995L12.9211 17.0386V11.9604L16.549 14.4995Z" stroke="#E6E6E6"/>
</g>
</svg>
