<svg width="121" height="20" viewBox="0 0 121 20" fill="none" xmlns="http://www.w3.org/2000/svg">
<path d="M25.76 0.699999H19.928L12.896 12.556L5.86398 0.699999H0.0319824V17.5H4.35198V5.98L11.336 17.5H14.456L21.44 5.98V17.5H25.76V0.699999Z" fill="white"/>
<path d="M47.5 19.5C60.4079 19.5 66 16.0958 66 9.97361C66 3.87778 60.4079 0.5 47.5 0.5C34.55 0.5 29 3.85139 29 9.97361C29 16.1222 34.55 19.5 47.5 19.5ZM47.5 16C39.6375 16 35 13.7736 35 9.97361C35 6.2 39.5954 4 47.5 4C55.4045 4 60 6.22639 60 9.97361C60 13.7472 55.3625 16 47.5 16Z" fill="#D22F26"/>
<path d="M87.128 0.699999L80.384 14.308L73.64 0.699999H68.792L77.432 17.5H83.336L91.976 0.699999H87.128Z" fill="white"/>
<path d="M99.3285 0.699999H95.0085V17.5H99.3285V0.699999Z" fill="white"/>
<path d="M121.003 4.132V0.699999H103.243V17.5H121.003V14.068H107.563V10.66H121.003V7.54H107.563V4.132H121.003Z" fill="white"/>
</svg>
