<svg width="44" height="44" viewBox="0 0 44 44" fill="none" xmlns="http://www.w3.org/2000/svg">
<rect x="0.5" y="0.5" width="43" height="43" rx="21.5" stroke="#737373"/>
<g clip-path="url(#clip0-2-1327)">
<path d="M26.5 25.06C25.93 25.06 25.42 25.285 25.03 25.6375L19.6825 22.525C19.72 22.3525 19.75 22.18 19.75 22C19.75 21.82 19.72 21.6475 19.6825 21.475L24.97 18.3925C25.375 18.7675 25.9075 19 26.5 19C27.745 19 28.75 17.995 28.75 16.75C28.75 15.505 27.745 14.5 26.5 14.5C25.255 14.5 24.25 15.505 24.25 16.75C24.25 16.93 24.28 17.1025 24.3175 17.275L19.03 20.3575C18.625 19.9825 18.0925 19.75 17.5 19.75C16.255 19.75 15.25 20.755 15.25 22C15.25 23.245 16.255 24.25 17.5 24.25C18.0925 24.25 18.625 24.0175 19.03 23.6425L24.37 26.7625C24.3325 26.92 24.31 27.085 24.31 27.25C24.31 28.4575 25.2925 29.44 26.5 29.44C27.7075 29.44 28.69 28.4575 28.69 27.25C28.69 26.0425 27.7075 25.06 26.5 25.06ZM26.5 16C26.9125 16 27.25 16.3375 27.25 16.75C27.25 17.1625 26.9125 17.5 26.5 17.5C26.0875 17.5 25.75 17.1625 25.75 16.75C25.75 16.3375 26.0875 16 26.5 16ZM17.5 22.75C17.0875 22.75 16.75 22.4125 16.75 22C16.75 21.5875 17.0875 21.25 17.5 21.25C17.9125 21.25 18.25 21.5875 18.25 22C18.25 22.4125 17.9125 22.75 17.5 22.75ZM26.5 28.015C26.0875 28.015 25.75 27.6775 25.75 27.265C25.75 26.8525 26.0875 26.515 26.5 26.515C26.9125 26.515 27.25 26.8525 27.25 27.265C27.25 27.6775 26.9125 28.015 26.5 28.015Z" fill="#E6E6E6"/>
</g>
<defs>
<clipPath id="clip0-2-1327">
<rect width="18" height="18" fill="white" transform="translate(13 13)"/>
</clipPath>
</defs>
</svg>
